<svg version="1.1" id="Layer_1" xmlns="http://www.w3.org/2000/svg" xmlns:xlink="http://www.w3.org/1999/xlink" x="0px" y="0px"
	 width="100%" viewBox="0 0 528 368" enable-background="new 0 0 528 368" xml:space="preserve">
<path fill="#000000" opacity="1.000000" stroke="none" 
	d="
M116.071732,140.979904 
	C111.840385,137.848602 112.374268,135.448730 115.875839,132.169327 
	C146.645508,103.352036 182.680573,85.128853 224.342468,78.670227 
	C288.879974,68.665298 345.874054,85.470314 395.377960,127.955612 
	C404.797424,136.039566 404.799774,136.036285 396.118317,144.721451 
	C392.350250,148.491119 388.428345,152.122498 384.867767,156.078949 
	C382.288940,158.944550 380.402405,159.078842 377.541595,156.310654 
	C359.924652,139.264206 339.527496,126.371155 316.324188,118.663109 
	C254.774261,98.216499 198.315048,108.251976 147.321030,148.430115 
	C144.189285,150.897614 141.174973,153.565872 138.413895,156.436798 
	C135.906342,159.044113 134.045898,159.228775 131.461655,156.463867 
	C126.574013,151.234543 121.384392,146.287445 116.071732,140.979904 
z"/>
<path fill="#000000" opacity="1.000000" stroke="none" 
	d="
M339.510620,164.427811 
	C345.744049,168.677460 351.138885,173.376648 356.484528,178.158966 
	C358.917328,180.335358 359.064575,181.948166 356.668427,184.252594 
	C350.904449,189.795944 345.198395,195.411255 339.714691,201.229141 
	C337.110352,203.992218 335.280090,203.686172 332.694977,201.247955 
	C317.651520,187.059372 299.881531,177.899277 279.612183,174.087463 
	C249.466202,168.418320 221.385162,173.854187 195.812469,191.102234 
	C191.252945,194.177490 186.860306,197.496613 183.057434,201.508987 
	C180.739670,203.954422 178.781738,203.876083 176.386353,201.360092 
	C170.987885,195.689804 165.473526,190.115387 159.758194,184.767136 
	C156.795044,181.994293 157.127930,180.154434 159.965347,177.553406 
	C181.955765,157.395096 207.554001,144.882843 237.140167,140.629944 
	C274.220978,135.299713 308.165131,143.486206 339.510620,164.427811 
z"/>
<path fill="#000000" opacity="1.000000" stroke="none" 
	d="
M282.870026,242.112518 
	C263.597412,231.319031 244.384476,232.793854 227.708679,246.365067 
	C225.267838,248.351471 223.762497,248.615158 221.496948,246.242203 
	C215.862946,240.341003 210.062057,234.594574 204.203842,228.914261 
	C201.851990,226.633835 201.935211,224.980820 204.405258,222.818710 
	C218.542892,210.443512 234.754303,203.443954 253.686996,202.558777 
	C275.137634,201.555893 294.035736,207.676666 310.343719,221.632812 
	C315.141205,225.738419 315.048157,225.845230 310.507019,230.382965 
	C305.558868,235.327408 300.391052,240.076324 295.745422,245.290390 
	C292.777344,248.621628 290.514130,248.630264 287.583160,245.568008 
	C286.337982,244.267029 284.659973,243.380386 282.870026,242.112518 
z"/>
<path fill="#000000" opacity="1.000000" stroke="none" 
	d="
M248.104584,332.998169 
	C248.094177,328.007233 247.864853,323.502533 248.136612,319.028320 
	C248.394638,314.780334 247.113739,312.135651 243.188171,309.822510 
	C231.924194,303.185272 227.413635,289.756958 231.466263,276.844788 
	C235.157608,265.083740 246.798019,257.133514 259.443481,257.736816 
	C271.945190,258.333221 282.308319,266.777130 285.404846,278.890167 
	C288.568329,291.265228 283.690033,303.717072 272.561676,310.187469 
	C269.003540,312.256317 267.774780,314.569122 267.871277,318.509186 
	C268.091125,327.486176 267.827545,336.474030 267.953918,345.454742 
	C268.004364,349.041199 266.758026,350.356659 263.028320,350.418549 
	C248.106628,350.666168 248.108551,350.782257 248.104553,335.992920 
	C248.104324,335.161194 248.104584,334.329468 248.104584,332.998169 
z"/>
</svg>